<svg width="461" height="116" fill="none" xmlns="http://www.w3.org/2000/svg"><path fill="#C4C4C4" d="M0 12h170v104H0zM190 12h125v104H190zM335 12h126v104H335z"/><path d="M21.453 61.184l11.588-18.528h7.504L25.27 66.63 40.912 91H33.34L21.453 72.14 9.5 91H1.963l15.672-24.371L2.328 42.656h7.47l11.655 18.528zm42.633 0l11.588-18.528h7.504L67.904 66.63 83.543 91h-7.57L64.086 72.14 52.133 91h-7.537l15.672-24.371L44.96 42.656h7.47l11.655 18.528zm42.633 0l11.588-18.528h7.504L110.537 66.63 126.176 91h-7.571l-11.886-18.86L94.766 91h-7.538L102.9 66.629 87.594 42.656h7.47l11.655 18.528zm42.633 0l11.587-18.528h7.504L153.17 66.63 168.809 91h-7.571l-11.886-18.86L137.398 91h-7.537l15.672-24.371-15.306-23.973h7.47l11.655 18.528zm37.154 11.787h-16.203v-5.014h16.203v5.014zm22.744-11.787l11.588-18.528h7.504L213.068 66.63 228.707 91h-7.57L209.25 72.14 197.297 91h-7.537l15.672-24.371-15.307-23.973h7.471l11.654 18.528zm42.633 0l11.588-18.528h7.504L255.701 66.63 271.34 91h-7.57l-11.887-18.86L239.93 91h-7.537l15.671-24.371-15.306-23.973h7.471l11.654 18.528zm42.633 0l11.588-18.528h7.503L298.334 66.63 313.973 91h-7.571l-11.886-18.86L282.562 91h-7.537l15.672-24.371-15.306-23.973h7.47l11.655 18.528zM331.67 72.97h-16.203v-5.014h16.203v5.014zm22.744-11.787l11.588-18.528h7.504L358.232 66.63 373.871 91h-7.57l-11.887-18.86L342.461 91h-7.537l15.672-24.371-15.307-23.973h7.471l11.654 18.528zm42.633 0l11.588-18.528h7.504L400.865 66.63 416.504 91h-7.57l-11.887-18.86L385.094 91h-7.537l15.672-24.371-15.307-23.973h7.471l11.654 18.528zm42.633 0l11.588-18.528h7.503L443.498 66.63 459.137 91h-7.571L439.68 72.14 427.727 91h-7.538l15.672-24.371-15.306-23.973h7.47l11.655 18.528zM63.62 5.197c-.966-.277-1.669-.617-2.11-1.02a1.967 1.967 0 01-.657-1.5c0-.671.268-1.226.803-1.663.54-.442 1.239-.662 2.098-.662.586 0 1.107.113 1.564.34.461.226.817.538 1.067.937.254.398.38.834.38 1.307h-1.13c0-.516-.164-.92-.492-1.213-.329-.297-.791-.446-1.39-.446-.554 0-.987.123-1.3.37-.309.242-.463.58-.463 1.013 0 .348.147.643.44.885.297.238.798.457 1.505.656.712.2 1.266.42 1.665.662.402.239.699.518.89.838.196.32.293.697.293 1.131 0 .691-.27 1.246-.808 1.664-.54.414-1.26.621-2.162.621a4.04 4.04 0 01-1.641-.334c-.508-.226-.9-.535-1.178-.926a2.264 2.264 0 01-.41-1.33h1.13c0 .516.19.924.57 1.225.382.297.892.445 1.529.445.593 0 1.048-.12 1.365-.363.316-.242.474-.572.474-.99 0-.418-.146-.74-.44-.967-.292-.23-.823-.457-1.593-.68zm9.433-.14h-3.697V8.08h4.294V9h-5.42V.469h5.362v.926h-4.236v2.742h3.697v.92zm5.127.492h-2.004V9h-1.131V.469h2.824c.961 0 1.7.219 2.215.656.52.438.78 1.074.78 1.91 0 .531-.145.994-.434 1.389-.286.394-.684.69-1.196.885l2.004 3.62V9h-1.207L78.18 5.549zm-2.004-.92h1.728c.559 0 1.002-.145 1.33-.434.332-.289.498-.675.498-1.16 0-.527-.158-.931-.474-1.213-.313-.281-.766-.424-1.36-.427h-1.722v3.234zm8.976 2.877L87.59.469h1.23L85.656 9h-.996L81.502.469h1.225l2.425 7.037zM91.176 9H90.05V.469h1.125V9zm8.338-2.707c-.106.902-.44 1.6-1.002 2.092-.559.488-1.303.732-2.233.732-1.007 0-1.816-.361-2.425-1.084-.606-.722-.909-1.69-.909-2.9v-.82c0-.793.14-1.49.422-2.092.285-.602.688-1.063 1.207-1.383.52-.324 1.121-.486 1.805-.486.906 0 1.633.253 2.18.761.547.504.865 1.203.955 2.098h-1.131c-.098-.68-.31-1.172-.639-1.477-.324-.304-.78-.457-1.365-.457-.719 0-1.283.266-1.694.797-.406.531-.609 1.287-.609 2.268v.826c0 .926.194 1.662.58 2.209.387.547.928.82 1.623.82.625 0 1.104-.14 1.436-.422.336-.285.558-.779.668-1.482h1.13zm6.363-1.236h-3.697V8.08h4.295V9h-5.42V.469h5.361v.926h-4.236v2.742h3.697v.92zM55.252 23h-1.125v-8.531h1.125V23zm2.063 0v-8.531h2.408c.742 0 1.398.164 1.968.492.57.328 1.01.795 1.319 1.4.312.606.47 1.301.474 2.086v.545c0 .805-.156 1.51-.468 2.115a3.254 3.254 0 01-1.33 1.395c-.575.324-1.245.49-2.01.498h-2.361zm1.125-7.605v6.685h1.183c.867 0 1.541-.27 2.022-.808.484-.54.726-1.307.726-2.303v-.498c0-.969-.228-1.721-.686-2.256-.453-.54-1.097-.813-1.933-.82h-1.313zm11.572 3.662h-3.698v3.023h4.295V23h-5.42v-8.531h5.362v.926h-4.237v2.742h3.698v.92zM78.566 23h-1.13l-4.295-6.574V23H72.01v-8.531h1.13l4.307 6.603V14.47h1.12V23zm7.717-7.605h-2.742V23h-1.12v-7.605h-2.736v-.926h6.598v.926zM88.756 23H87.63v-8.531h1.125V23zm6.767-3.768h-3.58V23h-1.125v-8.531h5.285v.926h-4.16v2.918h3.58v.92zM98.658 23h-1.125v-8.531h1.125V23zm6.885-3.943h-3.697v3.023h4.295V23h-5.42v-8.531h5.361v.926h-4.236v2.742h3.697v.92zm5.127.492h-2.004V23h-1.131v-8.531h2.824c.961 0 1.7.219 2.215.656.52.438.78 1.074.78 1.91 0 .531-.145.994-.434 1.389-.285.394-.684.69-1.195.885l2.004 3.62V23h-1.208l-1.851-3.451zm-2.004-.92h1.729c.558 0 1.001-.145 1.33-.434.332-.289.498-.675.498-1.16 0-.527-.159-.931-.475-1.213-.312-.281-.766-.424-1.359-.427h-1.723v3.234zM242.686 5.057h-3.698V8.08h4.295V9h-5.42V.469h5.362v.926h-4.237v2.742h3.698v.92zm5.126.492h-2.003V9h-1.131V.469h2.824c.961 0 1.699.219 2.215.656.519.438.779 1.074.779 1.91 0 .531-.144.994-.434 1.389-.285.394-.683.69-1.195.885l2.004 3.62V9h-1.207l-1.852-3.451zm-2.003-.92h1.728c.559 0 1.002-.145 1.33-.434.332-.289.498-.675.498-1.16 0-.527-.158-.931-.474-1.213-.313-.281-.766-.424-1.36-.427h-1.722v3.234zm9.398.92h-2.004V9h-1.131V.469h2.824c.961 0 1.7.219 2.215.656.52.438.78 1.074.78 1.91 0 .531-.145.994-.434 1.389-.285.394-.684.69-1.195.885l2.004 3.62V9h-1.207l-1.852-3.451zm-2.004-.92h1.729c.558 0 1.002-.145 1.33-.434.332-.289.498-.675.498-1.16 0-.527-.158-.931-.475-1.213-.312-.281-.765-.424-1.359-.427h-1.723v3.234zm12.832.38c0 .837-.14 1.567-.422 2.192-.281.621-.679 1.096-1.195 1.424-.516.328-1.117.492-1.805.492-.672 0-1.267-.164-1.787-.492-.519-.332-.924-.803-1.213-1.412-.285-.613-.431-1.322-.439-2.127V4.47c0-.82.142-1.545.428-2.174.285-.629.687-1.11 1.207-1.442.523-.335 1.121-.503 1.793-.503.683 0 1.285.166 1.804.498.524.328.926.806 1.207 1.435.282.625.422 1.354.422 2.186v.539zm-1.119-.55c0-1.012-.203-1.787-.609-2.326-.407-.543-.975-.815-1.705-.815-.711 0-1.272.272-1.682.815-.406.539-.615 1.289-.627 2.25v.627c0 .98.205 1.752.615 2.314.414.559.983.838 1.705.838.727 0 1.289-.264 1.688-.79.398-.532.603-1.292.615-2.28v-.633zm5.936 1.09h-2.004V9h-1.131V.469h2.824c.961 0 1.699.219 2.215.656.519.438.779 1.074.779 1.91 0 .531-.144.994-.433 1.389-.286.394-.684.69-1.196.885l2.004 3.62V9h-1.207l-1.851-3.451zm-2.004-.92h1.728c.559 0 1.002-.145 1.33-.434.332-.289.498-.675.498-1.16 0-.527-.158-.931-.474-1.213-.313-.281-.766-.424-1.36-.427h-1.722v3.234zm-20.889 10.765h-2.742V23h-1.119v-7.605h-2.737v-.926h6.598v.926zm3.961 3.358l2.226-4.283h1.278l-2.942 5.35V23h-1.125v-3.182l-2.941-5.35h1.289l2.215 4.284zm5.73.908V23h-1.125v-8.531h3.147c.933 0 1.664.238 2.191.715.532.476.797 1.107.797 1.892 0 .828-.26 1.467-.779 1.916-.516.445-1.256.668-2.221.668h-2.01zm0-.92h2.022c.601 0 1.062-.14 1.383-.422.32-.285.48-.695.48-1.23 0-.508-.16-.914-.48-1.219-.321-.304-.76-.463-1.319-.474h-2.086v3.345zm11.268.317h-3.697v3.023h4.295V23h-5.42v-8.531h5.361v.926h-4.236v2.742h3.697v.92zM376.344 5.197c-.965-.277-1.668-.617-2.11-1.02a1.968 1.968 0 01-.656-1.5c0-.671.268-1.226.803-1.663.539-.442 1.238-.662 2.098-.662.585 0 1.107.113 1.564.34.461.226.816.538 1.066.937.254.398.381.834.381 1.307h-1.131c0-.516-.164-.92-.492-1.213-.328-.297-.791-.446-1.388-.446-.555 0-.989.123-1.301.37-.309.242-.463.58-.463 1.013 0 .348.146.643.439.885.297.238.799.457 1.506.656.711.2 1.266.42 1.664.662.403.239.699.518.891.838.195.32.293.697.293 1.131 0 .691-.27 1.246-.809 1.664-.539.414-1.26.621-2.162.621a4.042 4.042 0 01-1.641-.334c-.507-.226-.9-.535-1.177-.926a2.26 2.26 0 01-.41-1.33h1.13c0 .516.19.924.569 1.225.383.297.892.445 1.529.445.594 0 1.049-.12 1.365-.363.317-.242.475-.572.475-.99 0-.418-.147-.74-.439-.967-.293-.23-.825-.457-1.594-.68zm5.736.463V9h-1.125V.469h3.147c.933 0 1.664.238 2.191.715.531.476.797 1.107.797 1.892 0 .828-.26 1.467-.779 1.916-.516.446-1.256.668-2.221.668h-2.01zm0-.92h2.022c.601 0 1.062-.14 1.382-.422.321-.285.481-.695.481-1.23 0-.508-.16-.914-.481-1.219-.32-.305-.759-.463-1.318-.474h-2.086V4.74zm11.268.317h-3.698V8.08h4.295V9h-5.42V.469h5.362v.926h-4.237v2.742h3.698v.92zm8.273 1.236c-.105.902-.439 1.6-1.002 2.092-.558.488-1.303.732-2.232.732-1.008 0-1.817-.361-2.426-1.084-.606-.722-.908-1.69-.908-2.9v-.82c0-.793.14-1.49.422-2.092.285-.602.687-1.063 1.207-1.383.519-.324 1.121-.486 1.804-.486.907 0 1.633.253 2.18.761.547.504.865 1.203.955 2.098h-1.131c-.097-.68-.31-1.172-.638-1.477-.325-.304-.78-.457-1.366-.457-.718 0-1.283.266-1.693.797-.406.531-.609 1.287-.609 2.268v.826c0 .926.193 1.662.58 2.209.386.547.927.82 1.623.82.625 0 1.103-.14 1.435-.422.336-.285.559-.779.668-1.482h1.131zM404.369 9h-1.125V.469h1.125V9zm6.768-3.768h-3.58V9h-1.125V.469h5.285v.926h-4.16v2.917h3.58v.92zM414.271 9h-1.125V.469h1.125V9zm8.338-2.707c-.105.902-.439 1.6-1.002 2.092-.558.488-1.302.732-2.232.732-1.008 0-1.816-.361-2.426-1.084-.605-.722-.908-1.69-.908-2.9v-.82c0-.793.141-1.49.422-2.092.285-.602.687-1.063 1.207-1.383.519-.324 1.121-.486 1.805-.486.906 0 1.632.253 2.179.761.547.504.866 1.203.955 2.098h-1.13c-.098-.68-.311-1.172-.639-1.477-.324-.304-.779-.457-1.365-.457-.719 0-1.284.266-1.694.797-.406.531-.609 1.287-.609 2.268v.826c0 .926.193 1.662.58 2.209.387.547.928.82 1.623.82.625 0 1.104-.14 1.436-.422.335-.285.558-.779.668-1.482h1.13zm-37.423 12.764h-3.698v3.023h4.295V23h-5.42v-8.531h5.362v.926h-4.237v2.742h3.698v.92zm5.126.492h-2.003V23h-1.131v-8.531h2.824c.961 0 1.699.219 2.215.656.519.438.779 1.074.779 1.91 0 .531-.144.994-.434 1.389-.285.394-.683.69-1.195.885l2.004 3.62V23h-1.207l-1.852-3.451zm-2.003-.92h1.728c.559 0 1.002-.145 1.33-.434.332-.289.498-.675.498-1.16 0-.527-.158-.931-.474-1.213-.313-.281-.766-.424-1.36-.427h-1.722v3.234zm9.398.92h-2.004V23h-1.131v-8.531h2.824c.961 0 1.7.219 2.215.656.52.438.78 1.074.78 1.91 0 .531-.145.994-.434 1.389-.285.394-.684.69-1.195.885l2.004 3.62V23h-1.207l-1.852-3.451zm-2.004-.92h1.729c.558 0 1.002-.145 1.33-.434.332-.289.498-.675.498-1.16 0-.527-.158-.931-.475-1.213-.312-.281-.765-.424-1.359-.427h-1.723v3.234zm12.832.38c0 .837-.14 1.567-.422 2.192-.281.621-.679 1.096-1.195 1.424-.516.328-1.117.492-1.805.492-.672 0-1.267-.164-1.787-.492-.519-.332-.924-.803-1.213-1.412-.285-.613-.431-1.322-.439-2.127v-.615c0-.82.142-1.545.428-2.174.285-.629.687-1.11 1.207-1.442.523-.335 1.121-.503 1.793-.503.683 0 1.285.166 1.804.498.524.328.926.806 1.207 1.435.282.625.422 1.354.422 2.186v.539zm-1.119-.55c0-1.012-.203-1.787-.609-2.326-.407-.543-.975-.815-1.705-.815-.711 0-1.272.272-1.682.815-.406.539-.615 1.289-.627 2.25v.627c0 .98.205 1.752.615 2.314.414.559.983.838 1.705.838.727 0 1.289-.264 1.688-.79.398-.532.603-1.292.615-2.28v-.633zm5.936 1.09h-2.004V23h-1.131v-8.531h2.824c.961 0 1.699.219 2.215.656.519.438.779 1.074.779 1.91 0 .531-.144.994-.433 1.389-.286.394-.684.69-1.196.885l2.004 3.62V23h-1.207l-1.851-3.451zm-2.004-.92h1.728c.559 0 1.002-.145 1.33-.434.332-.289.498-.675.498-1.16 0-.527-.158-.931-.474-1.213-.313-.281-.766-.424-1.36-.427h-1.722v3.234z" fill="#000"/></svg>